<?xml version="1.0" standalone="no"?>
<!DOCTYPE svg PUBLIC "-//W3C//DTD SVG 20010904//EN"
 "http://www.w3.org/TR/2001/REC-SVG-20010904/DTD/svg10.dtd">
<svg version="1.0" xmlns="http://www.w3.org/2000/svg"
 width="708.000000pt" height="708.000000pt" viewBox="0 0 708.000000 708.000000"
 preserveAspectRatio="xMidYMid meet">
<metadata>
Created by potrace 1.11, written by Peter Selinger 2001-2013
</metadata>
<g transform="translate(0.000000,708.000000) scale(0.100000,-0.100000)"
fill="#000000" stroke="none">
<path d="M1563 5742 l-1342 -2 -5 -43 c-4 -23 -5 -1009 -4 -2192 l3 -2150
3360 -3 3361 -2 -4 2192 c-2 1206 -5 2194 -6 2195 -3 4 -4051 8 -5363 5z
m-820 -101 c22 -22 -46 -30 -215 -26 l-173 4 3 -175 c3 -151 1 -174 -13 -174
-12 0 -15 17 -17 98 -4 151 2 256 15 264 7 4 8 9 2 10 -5 1 22 4 60 7 104 9
327 3 338 -8z m5526 -3 c12 -15 11 -18 -3 -18 -10 0 -16 8 -16 22 0 12 1 19 3
17 1 -2 9 -12 16 -21z m-5459 4 c0 -14 -23 -32 -42 -32 -21 0 -23 11 -6 28 13
13 48 16 48 4z m5958 -8 c18 -3 30 -9 27 -15 -4 -5 -48 -7 -108 -4 -56 2 -150
5 -209 5 -119 0 -150 17 -40 22 87 4 288 -1 330 -8z m-1608 -40 c223 -3 624
-5 891 -4 l487 2 -5 -468 c-7 -674 -9 -1463 -4 -2034 1 -272 1 -670 0 -885
l-4 -390 -65 -7 c-298 -31 -552 -43 -975 -43 -277 -1 -506 -6 -595 -14 -80 -7
-280 -14 -445 -16 -301 -3 -393 -12 -534 -49 -30 -9 -58 -13 -63 -10 -16 10
-8 59 12 72 11 7 20 18 20 26 0 7 7 19 15 26 19 15 19 59 2 85 -8 11 -18 45
-24 75 -11 58 -13 92 -17 330 -2 124 -6 154 -26 205 -18 47 -23 82 -24 160 -2
74 -7 114 -23 155 -23 62 -34 270 -39 770 -2 146 -4 326 -5 400 0 74 4 199 10
277 8 88 10 234 6 390 -9 365 -8 409 9 529 8 60 18 147 20 194 6 109 14 144
36 167 38 42 373 71 755 66 99 -2 362 -5 585 -9z m-1890 -19 c204 -15 344 -40
336 -59 -3 -6 -14 -42 -26 -81 -12 -38 -26 -79 -31 -91 -6 -11 -9 -31 -8 -45
3 -24 -11 -169 -16 -169 -2 0 -19 16 -39 36 l-35 35 -30 -22 c-35 -26 -34 -39
1 -15 12 9 25 16 29 16 12 0 69 -64 69 -78 0 -11 -3 -11 -15 2 -27 26 -52 28
-95 6 -23 -12 -40 -24 -37 -27 3 -3 24 5 46 18 38 21 41 21 66 5 36 -24 42
-45 18 -65 -26 -20 -33 -41 -22 -62 6 -12 2 -25 -11 -42 -22 -28 -25 -43 -10
-52 5 -3 7 0 4 8 -3 8 4 24 16 35 17 15 20 27 16 49 -3 15 -2 35 3 43 18 27
22 3 11 -65 -7 -45 -8 -169 -4 -374 8 -315 10 -678 5 -951 -2 -120 2 -182 18
-275 32 -183 33 -194 37 -285 2 -47 4 -87 5 -90 7 -20 2 -68 -6 -67 -5 1 -9
-5 -7 -13 2 -8 4 -23 5 -32 1 -10 5 -18 10 -18 5 0 3 -8 -4 -17 -12 -14 -12
-15 0 -9 10 7 12 3 6 -13 -12 -40 -15 -141 -3 -141 6 0 5 -7 -3 -17 -10 -11
-10 -14 -1 -9 8 5 12 -2 12 -23 0 -17 -5 -31 -11 -31 -8 0 -8 -4 0 -14 6 -7 9
-20 6 -28 -3 -8 -1 -27 5 -43 7 -18 7 -32 1 -38 -6 -6 -6 -19 0 -35 7 -18 6
-28 -3 -34 -7 -4 -8 -8 -3 -8 6 0 1 -8 -10 -17 -16 -13 -17 -15 -2 -10 11 4
17 1 18 -11 1 -9 3 -33 5 -52 2 -19 -1 -47 -6 -62 -5 -17 -5 -40 0 -59 7 -22
6 -37 -2 -46 -9 -11 -9 -16 1 -23 9 -5 10 -10 2 -14 -8 -5 -8 -13 -1 -26 7
-13 7 -21 -1 -26 -8 -4 -8 -9 0 -17 15 -15 14 -57 -1 -57 -10 0 -10 -2 -1 -8
8 -5 9 -22 1 -61 -5 -30 -7 -62 -5 -73 3 -10 1 -21 -5 -24 -5 -3 -7 -13 -4
-21 4 -9 2 -21 -4 -28 -6 -7 -12 -27 -13 -44 -1 -17 -7 -31 -14 -31 -6 0 -13
-4 -15 -9 -1 -5 -50 0 -108 10 -188 34 -341 50 -585 59 -235 9 -404 19 -735
42 -93 6 -439 11 -797 12 -347 1 -634 4 -638 7 -3 4 -7 453 -8 998 -1 545 -5
991 -8 991 -4 0 -9 -10 -12 -22 -2 -13 -3 -374 -2 -803 1 -432 -1 -787 -6
-797 -6 -11 -5 -18 3 -20 6 -2 8 -10 4 -16 -16 -26 -26 -9 -26 43 0 37 -4 55
-12 55 -10 0 -9 3 1 9 9 6 11 16 6 32 -8 23 -8 23 -15 4 -4 -11 -7 36 -7 105
-1 192 -3 234 -9 228 -3 -3 -6 -44 -6 -90 0 -45 -4 -93 -9 -105 -5 -14 -5 -23
1 -23 9 0 8 -113 -5 -524 l-6 -210 -34 -35 c-40 -41 -54 -36 -32 12 13 27 16
62 13 186 -2 83 1 154 5 157 5 3 9 -37 10 -88 0 -51 1 -114 1 -140 0 -27 4
-48 8 -48 11 0 18 188 19 485 1 549 11 1617 15 1623 2 4 0 27 -4 52 -7 39 -8
35 -9 -40 -1 -47 -4 -98 -6 -115 -3 -30 -19 -1165 -19 -1392 0 -68 -4 -123 -8
-123 -10 0 -11 14 -9 143 2 114 -10 165 -20 87 -3 -25 -7 218 -8 540 -2 841
-2 1085 5 1445 4 176 7 363 8 415 1 53 5 101 10 108 4 7 2 12 -6 12 -10 0 -10
2 1 9 10 6 10 10 1 16 -7 4 -9 17 -5 34 4 14 8 53 10 86 2 33 4 65 5 70 6 26
-1 145 -7 145 -5 0 -9 -24 -9 -52 -1 -29 -4 -91 -8 -138 -3 -47 -8 -114 -11
-150 -3 -36 -7 -472 -11 -970 -8 -1379 -10 -1553 -19 -1579 -6 -17 -5 -22 3
-17 8 5 12 -1 12 -14 0 -12 -4 -19 -9 -15 -6 3 -12 -16 -14 -42 -2 -27 -2 231
0 572 2 341 4 1057 4 1590 0 534 3 985 6 1003 4 26 10 32 29 32 14 0 58 10 99
22 41 12 77 20 79 17 7 -7 12 -956 7 -1264 -2 -139 -8 -245 -13 -252 -7 -9 -7
-13 0 -13 10 0 9 -81 -1 -178 -2 -18 2 -37 9 -43 10 -8 13 -6 13 8 -1 29 13
898 16 1018 1 61 3 252 4 427 l1 316 898 -4 c493 -2 958 0 1032 5 221 13 462
12 670 -4z m3539 -199 c1 -105 6 -175 13 -183 7 -9 7 -13 -1 -13 -6 0 -18 11
-27 25 -14 22 -16 44 -10 153 3 70 6 150 6 177 1 36 4 44 10 30 4 -11 8 -96 9
-189z m-2999 185 c0 -5 -16 -15 -35 -21 -41 -14 -88 -64 -122 -134 -14 -29
-36 -57 -49 -63 -22 -10 -24 -9 -20 5 7 26 18 81 17 87 -2 10 32 70 49 86 31
30 75 48 118 49 23 0 42 -4 42 -9z m-216 -256 c-4 -8 -8 -15 -10 -15 -2 0 -4
7 -4 15 0 8 4 15 10 15 5 0 7 -7 4 -15z m-3244 -69 c0 -3 -4 -8 -10 -11 -5 -3
-10 -1 -10 4 0 6 5 11 10 11 6 0 10 -2 10 -4z m3345 -212 c-7 -173 -9 -187
-27 -192 -13 -3 -16 -7 -8 -12 8 -5 7 -9 -5 -13 -9 -4 -13 -3 -10 3 3 6 0 10
-7 10 -7 1 -3 6 9 13 15 8 19 17 14 26 -7 11 -11 10 -20 -5 -10 -17 -11 -17
-12 6 -1 14 -1 33 0 42 3 30 -17 57 -39 51 -23 -6 -26 6 -7 26 10 11 10 14 0
18 -7 3 -13 11 -13 19 0 8 6 14 13 14 9 0 9 2 -1 9 -11 7 -11 9 2 14 9 4 16
-1 19 -11 3 -15 5 -14 12 3 4 11 13 34 21 52 8 17 14 39 14 48 0 19 40 79 47
71 3 -3 2 -89 -2 -192z m3110 126 c3 -5 1 -10 -4 -10 -6 0 -11 5 -11 10 0 6 2
10 4 10 3 0 8 -4 11 -10z m-3251 -217 c3 -4 16 -8 29 -10 12 -2 26 -9 32 -15
7 -8 4 -9 -12 -5 -14 3 -24 -1 -27 -10 -5 -13 -9 -13 -23 -2 -15 12 -16 12 -9
-6 4 -11 3 -16 -1 -11 -9 9 -11 66 -2 66 3 0 9 -3 13 -7z m42 -81 c1 -7 0 -8
-3 -2 -8 16 -23 12 -23 -6 0 -14 -2 -14 -16 -3 -14 12 -14 14 3 20 23 9 36 6
39 -9z m89 -322 c-3 -5 -1 -10 4 -10 6 0 11 -13 11 -30 0 -29 -13 -40 -25 -20
-3 6 -14 10 -23 9 -14 0 -13 -2 3 -9 11 -5 17 -9 13 -9 -3 -1 -13 -4 -21 -7
-22 -8 -16 30 10 60 22 26 40 36 28 16z m-75 -73 c0 -21 38 -39 58 -27 14 9
13 10 -8 4 -24 -6 -24 -5 -6 9 26 20 52 0 27 -21 -15 -12 -15 -13 1 -8 10 3
20 1 23 -4 4 -6 3 -10 -2 -10 -4 0 -9 -16 -9 -35 -1 -19 3 -35 8 -35 5 0 6 -5
2 -11 -4 -7 -8 -53 -10 -103 -5 -152 -15 -256 -25 -256 -5 0 -9 9 -9 20 0 11
-6 20 -12 20 -10 0 -9 3 1 9 9 6 10 11 3 15 -6 4 -8 14 -5 23 4 9 2 14 -3 11
-5 -4 -9 15 -8 44 0 36 -5 57 -20 76 -16 21 -16 24 -3 13 17 -13 17 -12 8 10
-16 39 -24 63 -26 74 -2 13 -14 46 -26 68 -6 10 -6 17 0 17 16 0 39 57 30 71
-12 19 -11 39 1 39 6 0 10 -6 10 -13z m-53 -172 c0 -8 -4 -15 -9 -15 -4 0 -8
7 -8 15 0 8 4 15 8 15 5 0 9 -7 9 -15z m33 -215 c0 -5 -4 -10 -10 -10 -5 0
-10 5 -10 10 0 6 5 10 10 10 6 0 10 -4 10 -10z m35 -70 c3 -5 -1 -10 -9 -10
-9 0 -16 5 -16 10 0 6 4 10 9 10 6 0 13 -4 16 -10z m-35 -30 c11 -11 20 -25
20 -31 0 -11 -13 0 -39 34 -18 23 -6 22 19 -3z m-20 -30 c0 -11 -4 -20 -8 -20
-4 0 -8 9 -9 20 -1 11 2 20 8 20 5 0 9 -9 9 -20z m100 -15 c0 -12 -19 -12 -23
0 -4 9 -1 12 9 8 7 -3 14 -7 14 -8z m-60 -45 c-6 -12 -14 -19 -17 -17 -2 3 1
15 7 27 6 12 14 19 17 17 2 -3 -1 -15 -7 -27z m40 10 c0 -5 -2 -10 -4 -10 -3
0 -8 5 -11 10 -3 6 -1 10 4 10 6 0 11 -4 11 -10z m-93 -42 c-3 -8 -6 -5 -6 6
-1 11 2 17 5 13 3 -3 4 -12 1 -19z m108 -42 c-4 -28 -11 -55 -16 -60 -12 -13
-11 -29 1 -21 12 7 14 -127 3 -139 -5 -4 -8 -12 -8 -18 0 -5 -26 -25 -57 -44
-54 -31 -74 -34 -46 -6 7 7 8 12 2 12 -6 0 -11 18 -10 39 0 22 4 37 8 35 5 -3
8 10 7 28 -1 29 -2 30 -8 9 -4 -14 -7 8 -7 52 0 43 2 77 5 77 7 0 51 -63 51
-73 0 -13 -29 5 -34 21 -3 10 -3 -5 0 -32 3 -27 11 -58 17 -69 9 -15 9 -21 0
-24 -18 -7 -16 -20 3 -20 13 0 15 8 11 35 -4 24 -3 32 6 29 8 -3 12 12 13 49
0 34 -3 49 -9 41 -6 -9 -7 -8 -4 3 2 8 9 14 15 13 5 -1 16 5 24 14 12 14 10
16 -14 11 -16 -3 -28 -1 -28 4 0 5 -5 6 -11 2 -13 -8 -29 13 -29 41 0 18 1 18
15 -3 14 -18 19 -20 35 -9 11 6 20 16 20 21 0 16 32 46 42 40 6 -4 7 -28 3
-58z m-15 -316 c0 -5 -7 -10 -16 -10 -8 0 -12 5 -9 10 3 6 10 10 16 10 5 0 9
-4 9 -10z m-40 -50 c-19 -11 -42 -19 -50 -19 -8 0 3 9 25 19 53 24 70 24 25 0z
m-23 -36 c-3 -3 -12 -4 -19 -1 -8 3 -5 6 6 6 11 1 17 -2 13 -5z m43 -39 c0 -2
-12 -11 -27 -20 l-28 -15 25 2 c14 2 30 10 37 18 14 17 13 18 18 -65 2 -33 6
-79 10 -102 6 -40 5 -41 -25 -48 -25 -5 -31 -11 -27 -26 9 -33 -11 -30 -22 3
-14 45 -33 196 -26 207 3 5 1 12 -5 16 -15 9 -12 28 3 22 8 -3 20 -1 28 4 15
9 39 12 39 4z m70 -373 c0 -4 -16 -16 -35 -26 -27 -15 -38 -17 -47 -8 -8 8 -7
13 8 17 10 4 26 10 34 15 19 11 40 12 40 2z m0 -32 c0 -5 -7 -10 -16 -10 -8 0
-12 5 -9 10 3 6 10 10 16 10 5 0 9 -4 9 -10z m-53 -26 c-3 -3 -12 -4 -19 -1
-8 3 -5 6 6 6 11 1 17 -2 13 -5z m73 -10 c0 -7 -10 -9 -25 -6 -20 3 -24 1 -19
-12 3 -9 2 -16 -4 -16 -18 0 -21 29 -4 39 22 12 52 10 52 -5z m-88 -246 c-7
-7 -12 -8 -12 -2 0 6 3 14 7 17 3 4 9 5 12 2 2 -3 -1 -11 -7 -17z m24 -65
c-10 -10 -19 5 -10 18 6 11 8 11 12 0 2 -7 1 -15 -2 -18z m96 -88 c-4 -26 -22
-35 -22 -12 0 10 18 37 26 37 1 0 -1 -11 -4 -25z m-98 -4 c16 -18 16 -23 2
-72 -19 -62 -21 -146 -4 -201 9 -32 8 -48 -6 -94 -10 -31 -19 -54 -21 -52 -16
19 -12 438 5 438 4 0 15 -9 24 -19z m97 -281 c-10 -25 -10 -25 -10 5 -1 17 3
41 7 55 7 25 7 24 10 -5 2 -17 -1 -42 -7 -55z m-3334 -62 c-2 -13 -4 -5 -4 17
-1 22 1 32 4 23 2 -10 2 -28 0 -40z m53 43 c0 -6 -4 -12 -8 -15 -5 -3 -9 1 -9
9 0 8 4 15 9 15 4 0 8 -4 8 -9z m36 -88 c-2 -27 -4 -70 -5 -96 -1 -27 -4 -46
-9 -43 -4 2 -7 28 -6 58 1 29 2 70 3 91 0 20 6 37 11 37 6 0 9 -19 6 -47z
m3231 -25 c-2 -13 -4 -5 -4 17 -1 22 1 32 4 23 2 -10 2 -28 0 -40z m-3321 -59
c-2 -55 -7 -103 -10 -106 -8 -8 -8 171 0 191 12 32 15 14 10 -85z m211 -105
c5 -140 3 -154 -16 -192 -12 -23 -23 -42 -26 -42 -2 0 -9 9 -15 21 -9 16 -7
29 10 64 25 51 34 95 21 95 -10 0 -8 22 4 61 4 11 2 19 -6 19 -9 0 -9 3 0 14
7 8 10 35 8 65 -2 29 0 50 5 49 5 -2 12 -71 15 -154z m-287 86 c12 -8 11 -10
-7 -10 -13 0 -23 5 -23 10 0 13 11 13 30 0z m117 -32 c-3 -8 -6 -5 -6 6 -1 11
2 17 5 13 3 -3 4 -12 1 -19z m-104 -89 c-1 -46 -3 -160 -4 -254 -1 -111 -6
-173 -13 -178 -7 -6 -5 -7 6 -4 9 3 18 3 21 0 3 -3 98 -5 211 -4 134 1 206 -2
211 -8 4 -8 -68 -11 -233 -11 -183 0 -239 3 -240 13 -5 40 -9 497 -5 519 4 22
9 25 27 19 19 -8 21 -15 19 -92z m3332 59 c-2 -18 -9 -79 -16 -136 -7 -57 -17
-106 -22 -109 -5 -3 -7 12 -4 38 24 198 31 239 42 239 2 0 2 -15 0 -32z m3138
-305 c-1 -87 -3 -162 -4 -168 -6 -23 -14 147 -11 238 5 157 17 103 15 -70z
m-3036 65 c-3 -8 -6 -5 -6 6 -1 11 2 17 5 13 3 -3 4 -12 1 -19z m-3370 -40
c-2 -13 -4 -5 -4 17 -1 22 1 32 4 23 2 -10 2 -28 0 -40z m3179 5 c-11 -11 -17
4 -9 23 7 18 8 18 11 1 2 -10 1 -21 -2 -24z m114 -23 c0 -11 -4 -20 -10 -20
-5 0 -10 9 -10 20 0 11 5 20 10 20 6 0 10 -9 10 -20z m52 -22 c-15 -15 -24 -6
-16 16 5 12 10 14 17 7 8 -8 8 -14 -1 -23z m-207 12 c3 -5 2 -10 -4 -10 -5 0
-13 5 -16 10 -3 6 -2 10 4 10 5 0 13 -4 16 -10z m-3119 -56 c10 17 12 16 16
-8 6 -30 -9 -46 -24 -25 -7 11 -8 9 -6 -6 1 -11 -1 -21 -5 -22 -4 -2 -7 -1 -7
2 0 3 1 31 1 63 2 53 2 54 8 17 5 -35 8 -38 17 -21z m3204 24 c0 -4 -4 -8 -9
-8 -6 0 -12 4 -15 8 -3 5 1 9 9 9 8 0 15 -4 15 -9z m3135 -147 c24 -7 13 -10
-55 -11 -47 0 -123 -3 -170 -6 -47 -2 -98 -1 -115 3 -22 6 -2 9 70 13 197 10
240 10 270 1z"/>
<path d="M586 5483 c-3 -10 -5 -254 -5 -543 0 -545 -9 -1398 -16 -1532 -3 -43
-1 -78 4 -78 17 0 24 290 38 1578 4 419 3 592 -5 592 -6 0 -13 -8 -16 -17z"/>
<path d="M482 5470 c0 -14 2 -19 5 -12 2 6 2 18 0 25 -3 6 -5 1 -5 -13z"/>
<path d="M553 5445 c0 -27 2 -38 4 -22 2 15 2 37 0 50 -2 12 -4 0 -4 -28z"/>
<path d="M510 5435 c0 -8 4 -15 10 -15 5 0 7 7 4 15 -4 8 -8 15 -10 15 -2 0
-4 -7 -4 -15z"/>
<path d="M3492 5388 c2 -6 -4 -20 -15 -31 -18 -18 -19 -18 -32 0 -8 10 -15 21
-15 26 0 4 -5 7 -10 7 -6 0 -1 -13 11 -29 30 -41 22 -111 -17 -153 -23 -24
-25 -28 -8 -20 24 13 48 46 58 82 4 14 20 35 34 48 25 22 26 23 5 17 -29 -8
-30 10 -3 27 24 15 26 38 4 38 -9 0 -14 -5 -12 -12z"/>
<path d="M2865 5381 c-7 -12 12 -24 25 -16 11 7 4 25 -10 25 -5 0 -11 -4 -15
-9z"/>
<path d="M3289 5388 c-1 -2 -3 -13 -4 -26 -2 -20 2 -22 35 -20 21 2 36 7 33
11 -3 5 -16 6 -29 3 -18 -5 -22 -3 -18 8 4 11 -13 35 -17 24z"/>
<path d="M472 5344 c-1 -13 2 -24 6 -24 10 0 13 38 3 44 -3 3 -8 -6 -9 -20z"/>
<path d="M1249 5320 c-24 -28 -62 -65 -84 -83 -66 -51 -165 -168 -190 -222
-29 -66 -38 -140 -24 -206 12 -57 58 -161 84 -189 13 -15 13 -21 -4 -57 -11
-22 -27 -45 -35 -52 -10 -9 -12 -19 -7 -34 5 -12 10 -26 11 -32 4 -20 10 -18
10 4 0 24 16 58 36 79 8 7 18 21 23 30 9 16 11 16 28 0 17 -17 16 -18 -7 -19
-17 -1 -20 -3 -7 -6 20 -5 22 -14 5 -31 -9 -9 -9 -12 0 -12 7 0 12 -11 12 -25
0 -14 -5 -25 -12 -25 -9 0 -9 -3 0 -12 14 -14 16 -38 3 -38 -5 0 -16 7 -25 15
-33 33 -56 -13 -72 -142 -6 -45 -4 -53 15 -65 11 -7 21 -19 21 -27 0 -9 7 -6
20 9 11 13 20 27 20 32 0 4 7 8 15 8 13 0 15 -52 15 -411 l0 -411 283 4 c254
4 290 7 362 27 110 31 108 32 119 -11 l10 -38 108 0 109 0 6 31 c5 28 8 30 32
22 14 -4 58 -8 98 -8 64 0 76 3 117 32 l46 33 0 -30 c0 -28 2 -30 41 -30 l41
0 -4 178 c-3 165 -5 179 -27 215 -28 46 -81 75 -155 83 -46 6 -56 10 -52 23 3
9 30 110 61 225 30 116 57 212 60 214 5 6 15 -30 144 -528 61 -234 118 -438
126 -453 8 -16 15 -53 15 -83 l0 -54 40 0 39 0 3 63 3 62 56 3 c47 2 58 6 62
22 4 16 14 20 44 20 51 1 113 30 146 69 38 46 61 131 53 203 -8 75 -26 117
-70 161 -20 20 -36 42 -36 48 0 9 139 528 166 622 5 16 -2 18 -82 15 l-87 -3
-64 -240 c-35 -132 -73 -274 -84 -316 -19 -70 -24 -79 -65 -107 l-44 -32 0 30
c0 28 -2 30 -40 30 -34 0 -40 -3 -40 -22 0 -50 -5 -32 -181 625 l-10 37 -94 0
-94 0 -11 -42 c-63 -237 -103 -379 -114 -407 l-13 -35 0 40 c0 62 -40 168 -87
232 -51 68 -132 125 -225 158 -36 13 -71 31 -78 40 -10 13 -21 15 -54 10 -23
-4 -92 -4 -154 0 l-113 7 54 53 c32 30 65 76 80 108 46 101 54 229 18 298 -8
15 -14 29 -13 30 2 2 -3 13 -10 26 -7 13 -8 22 -2 22 6 0 8 6 5 14 -5 12 84
86 104 86 5 0 37 14 71 31 34 17 65 29 67 26 3 -3 20 1 37 8 18 7 65 17 105
20 71 7 101 25 41 25 -20 0 -28 4 -23 11 5 9 -4 10 -32 4 -21 -4 -50 -8 -64
-10 -61 -9 -231 -92 -285 -140 -55 -49 -60 -49 -112 6 -126 131 -154 165 -149
181 9 36 -13 27 -55 -22z m145 -142 c126 -125 148 -165 154 -273 5 -94 -6
-141 -50 -214 -31 -51 -143 -151 -170 -151 -6 0 22 33 63 73 81 78 115 136
128 215 9 56 -1 152 -19 197 l-13 30 -8 -40 c-4 -22 -8 -89 -9 -150 l0 -110
-90 -72 c-49 -40 -91 -73 -93 -73 -3 0 -19 12 -36 28 -17 15 -64 45 -103 67
l-73 41 0 144 c0 80 -4 157 -8 171 -7 22 -1 32 48 80 69 65 72 68 113 97 51
36 37 9 -26 -49 l-58 -54 131 0 131 0 -68 66 c-57 55 -72 79 -51 79 3 0 51
-46 107 -102z m-387 -245 c-3 -28 1 -77 10 -118 18 -83 56 -139 146 -220 56
-50 60 -55 36 -55 -31 0 -145 113 -177 177 -32 62 -48 167 -33 221 16 56 25
53 18 -5z m690 -419 c-3 -3 -12 -4 -19 -1 -8 3 -5 6 6 6 11 1 17 -2 13 -5z
m-87 -92 c-5 -2 -10 -9 -10 -16 0 -11 204 -773 215 -804 6 -18 -85 -59 -172
-77 -43 -9 -127 -15 -231 -15 l-162 0 1 461 0 461 185 -4 c101 -1 180 -4 174
-6z m53 -9 c-7 -2 -19 -2 -25 0 -7 3 -2 5 12 5 14 0 19 -2 13 -5z m196 -111
c79 -79 102 -140 109 -290 3 -69 0 -142 -8 -188 -7 -41 -14 -73 -16 -72 -1 2
-37 131 -79 288 -42 157 -78 293 -81 303 -10 32 17 17 75 -41z m-837 -34 c-9
-9 -12 -7 -12 12 0 19 3 21 12 12 9 -9 9 -15 0 -24z m1303 -442 c23 -10 41
-27 52 -50 9 -20 15 -37 12 -40 -2 -2 -51 -7 -107 -11 -98 -6 -104 -6 -99 12
3 10 11 37 17 61 10 41 12 42 51 42 22 0 55 -7 74 -14z m434 -108 c-25 -97
-39 -119 -39 -62 0 47 14 98 35 131 27 40 28 20 4 -69z m227 36 c20 -47 17
-141 -5 -189 -21 -47 -38 -63 -80 -75 -25 -7 -31 -6 -31 6 0 13 20 88 66 252
16 58 28 59 50 6z m-906 -78 c0 -2 -8 -10 -17 -17 -16 -13 -17 -12 -4 4 13 16
21 21 21 13z m310 -33 c0 -104 -102 -184 -196 -153 -52 18 -64 41 -50 98 16
62 37 72 154 72 81 0 92 -2 92 -17z m-349 -26 c-10 -9 -11 -8 -5 6 3 10 9 15
12 12 3 -3 0 -11 -7 -18z m-11 -20 c0 -2 -17 -19 -37 -38 l-38 -34 34 38 c33
34 41 42 41 34z"/>
<path d="M2278 5333 c6 -2 18 -2 25 0 6 3 1 5 -13 5 -14 0 -19 -2 -12 -5z"/>
<path d="M3238 5333 c6 -2 18 -2 25 0 6 3 1 5 -13 5 -14 0 -19 -2 -12 -5z"/>
<path d="M3380 5292 c23 -48 30 -41 -68 -73 -52 -18 -38 -19 34 -4 28 6 28 6
10 -9 -11 -9 -16 -16 -10 -16 5 1 22 11 37 24 32 26 31 53 -4 96 -19 24 -19
24 1 -18z"/>
<path d="M2688 5303 c7 -3 16 -2 19 1 4 3 -2 6 -13 5 -11 0 -14 -3 -6 -6z"/>
<path d="M3200 5190 c-8 -5 -12 -11 -10 -14 3 -2 14 2 24 10 22 15 10 19 -14
4z"/>
<path d="M3269 5129 c-23 -19 -23 -20 -2 -10 12 6 25 16 28 21 10 16 -1 12
-26 -11z"/>
<path d="M1728 5103 c7 -3 16 -2 19 1 4 3 -2 6 -13 5 -11 0 -14 -3 -6 -6z"/>
<path d="M3010 5100 c0 -5 5 -10 10 -10 6 0 10 5 10 10 0 6 -4 10 -10 10 -5 0
-10 -4 -10 -10z"/>
<path d="M493 4998 c-2 -16 1 -18 10 -9 7 7 8 14 1 21 -6 6 -10 2 -11 -12z"/>
<path d="M1600 4970 c0 -5 7 -7 15 -4 8 4 15 8 15 10 0 2 -7 4 -15 4 -8 0 -15
-4 -15 -10z"/>
<path d="M911 4924 c0 -11 3 -14 6 -6 3 7 2 16 -1 19 -3 4 -6 -2 -5 -13z"/>
<path d="M897 4805 c20 -14 22 -24 22 -146 1 -83 6 -138 13 -152 12 -21 13
-20 19 18 5 39 6 39 17 15 6 -14 11 -20 11 -13 1 7 -4 24 -11 38 -10 22 -9 28
3 36 12 7 11 9 -2 9 -12 0 -16 8 -15 25 0 14 4 25 7 25 4 0 1 17 -7 38 -7 20
-13 46 -14 58 0 23 -34 64 -53 64 -6 0 -2 -7 10 -15z"/>
<path d="M856 4795 c-3 -8 -1 -15 4 -15 6 0 10 7 10 15 0 8 -2 15 -4 15 -2 0
-6 -7 -10 -15z"/>
<path d="M3227 4073 c-4 -3 -7 -26 -7 -50 l0 -43 45 0 45 0 0 50 0 50 -38 0
c-21 0 -42 -3 -45 -7z"/>
<path d="M921 3910 c0 -33 1 -34 10 -11 6 16 6 28 -1 35 -7 7 -10 -1 -9 -24z"/>
<path d="M3227 3893 c-4 -3 -7 -109 -7 -235 l0 -228 45 0 45 0 0 235 0 235
-38 0 c-21 0 -42 -3 -45 -7z"/>
<path d="M921 3822 c-14 -26 -14 -42 -1 -42 11 0 25 48 17 56 -3 3 -10 -3 -16
-14z"/>
<path d="M921 3770 c-1 -3 -4 -23 -7 -45 -5 -30 -3 -37 6 -29 6 6 10 27 7 45
-2 19 -5 32 -6 29z"/>
<path d="M906 3652 c-3 -6 -1 -14 5 -17 15 -10 25 3 12 16 -7 7 -13 7 -17 1z"/>
<path d="M910 3573 c0 -13 5 -23 10 -23 13 0 13 11 0 30 -8 12 -10 11 -10 -7z"/>
<path d="M571 3014 c0 -11 3 -14 6 -6 3 7 2 16 -1 19 -3 4 -6 -2 -5 -13z"/>
<path d="M885 2763 c-4 -21 -7 -134 -6 -251 1 -153 -3 -218 -11 -232 -10 -16
-10 -24 0 -40 24 -39 8 -85 -23 -60 -11 9 -12 4 -8 -29 3 -22 1 -53 -5 -70
-10 -28 -9 -31 8 -31 21 0 24 -10 35 -92 3 -27 10 -48 14 -48 5 0 12 21 16 48
11 77 16 92 34 92 14 0 16 10 13 71 -3 58 -6 68 -17 59 -22 -18 -38 -1 -31 34
4 17 6 36 5 41 -1 6 -3 129 -5 274 -2 145 -5 265 -7 268 -3 2 -8 -13 -12 -34z"/>
<path d="M3550 2179 c0 -5 5 -7 10 -4 6 3 10 8 10 11 0 2 -4 4 -10 4 -5 0 -10
-5 -10 -11z"/>
<path d="M3639 4317 c7 -7 14 -8 21 -1 6 6 2 10 -12 11 -16 2 -18 -1 -9 -10z"/>
<path d="M3624 3696 c-3 -8 -4 -25 -2 -38 3 -17 5 -13 9 15 5 38 2 47 -7 23z"/>
<path d="M3600 3560 c0 -13 11 -13 30 0 12 8 11 10 -7 10 -13 0 -23 -4 -23
-10z"/>
<path d="M3570 3540 c-9 -6 -10 -10 -3 -10 6 0 15 5 18 10 8 12 4 12 -15 0z"/>
</g>
</svg>
